<svg width="471" height="37" viewBox="0 0 471 37" fill="none" xmlns="http://www.w3.org/2000/svg">
<path d="M0.0625 1.78125C2.15625 2.03125 3.96875 2.21875 5.5 2.34375C7.03125 2.4375 8.29688 2.51562 9.29688 2.57812C10.4531 2.64063 11.4219 2.65625 12.2031 2.625C13.0156 2.59375 14.125 2.51562 15.5312 2.39062C16.7188 2.29688 18.2812 2.17188 20.2188 2.01562C22.1562 1.82812 24.5781 1.57812 27.4844 1.26562C27.5156 1.98438 27.5312 2.6875 27.5312 3.375C27.5625 4.03125 27.5938 4.60938 27.625 5.10938C27.6562 5.70312 27.6719 6.25 27.6719 6.75C27.6719 7.28125 27.6406 7.95312 27.5781 8.76562C27.5156 9.45312 27.4062 10.3281 27.25 11.3906C27.125 12.4219 26.9219 13.6562 26.6406 15.0938C26.2031 13.4062 25.7812 12.0469 25.375 11.0156C24.9688 9.95312 24.5938 9.10938 24.25 8.48438C23.875 7.76562 23.5 7.21875 23.125 6.84375C22.7188 6.5625 22.2344 6.32812 21.6719 6.14062C21.1719 5.98437 20.5312 5.85938 19.75 5.76562C19 5.67188 18.1094 5.6875 17.0781 5.8125C16.9219 9.9375 16.8125 13.2812 16.75 15.8438C16.6875 18.4062 16.6406 20.4062 16.6094 21.8438C16.5781 23.5625 16.5625 24.7969 16.5625 25.5469C16.5938 26.6094 16.7656 27.6562 17.0781 28.6875C17.3281 29.5625 17.7344 30.4688 18.2969 31.4062C18.8594 32.3438 19.6719 33.1719 20.7344 33.8906H15.0156C14.4844 33.8906 13.8281 33.9219 13.0469 33.9844C12.3906 34.0469 11.5469 34.1094 10.5156 34.1719C9.51562 34.2344 8.34375 34.3438 7 34.5C7.46875 33.6875 7.84375 32.9531 8.125 32.2969C8.40625 31.6406 8.625 31.0781 8.78125 30.6094C8.96875 30.0469 9.10938 29.5469 9.20312 29.1094C9.23438 28.4844 9.3125 27.2188 9.4375 25.3125C9.46875 24.5312 9.5 23.5625 9.53125 22.4062C9.59375 21.25 9.65625 19.875 9.71875 18.2812C9.8125 16.6875 9.89062 14.8594 9.95312 12.7969C10.0469 10.7031 10.1406 8.34375 10.2344 5.71875C9.67188 5.5625 9.14062 5.57812 8.64062 5.76562C8.14062 5.92188 7.70312 6.125 7.32812 6.375C6.89062 6.6875 6.46875 7.0625 6.0625 7.5C5.65625 8.03125 5.20312 8.71875 4.70312 9.5625C4.26562 10.2812 3.76562 11.2344 3.20312 12.4219C2.64062 13.5781 2 15.0156 1.28125 16.7344C1.125 14.9219 1.01562 13.4375 0.953125 12.2812C0.890625 11.0938 0.84375 10.1719 0.8125 9.51562C0.78125 8.73438 0.765625 8.15625 0.765625 7.78125C0.765625 7.4375 0.734375 6.98438 0.671875 6.42188C0.609375 5.95312 0.53125 5.34375 0.4375 4.59375C0.34375 3.8125 0.21875 2.875 0.0625 1.78125ZM31.9375 4.26562C33.5 4.35938 34.8125 4.4375 35.875 4.5C36.9688 4.53125 37.875 4.5625 38.5938 4.59375C39.4062 4.625 40.0938 4.625 40.6562 4.59375C41.2188 4.5625 41.9844 4.48437 42.9531 4.35938C43.7656 4.26562 44.8438 4.125 46.1875 3.9375C47.5625 3.71875 49.2656 3.4375 51.2969 3.09375C50.5781 3.8125 50.0156 4.46875 49.6094 5.0625C49.2344 5.625 48.9375 6.10938 48.7188 6.51562C48.4688 7.01562 48.2969 7.4375 48.2031 7.78125C48.1406 8.09375 48.2031 8.875 48.3906 10.125C48.5781 11.375 48.8438 12.8594 49.1875 14.5781C49.5312 16.2656 49.9062 18.0781 50.3125 20.0156C50.7188 21.9219 51.125 23.7188 51.5312 25.4062C51.9375 27.0625 52.2969 28.4844 52.6094 29.6719C52.9531 30.8281 53.2031 31.5156 53.3594 31.7344C53.8281 32.3906 54.125 32.8281 54.25 33.0469C54.375 33.2344 54.5938 33.4062 54.9062 33.5625C55.0312 33.625 55.2344 33.7188 55.5156 33.8438C55.7656 33.9688 56.0938 34.125 56.5 34.3125C56.9375 34.5 57.4844 34.7188 58.1406 34.9688C56.9219 35.0312 55.875 35.0781 55 35.1094C54.125 35.1094 53.4062 35.125 52.8438 35.1562C52.1875 35.1875 51.625 35.2188 51.1562 35.25C50.6875 35.25 50.125 35.2812 49.4688 35.3438C48.9062 35.4062 48.1719 35.4688 47.2656 35.5312C46.3906 35.5938 45.3594 35.6562 44.1719 35.7188C44.7969 35.2812 45.2969 34.8906 45.6719 34.5469C46.0781 34.1719 46.3906 33.8594 46.6094 33.6094C46.8594 33.2969 47.0312 33.0156 47.125 32.7656C47.1875 32.4844 47.2344 32.0625 47.2656 31.5C47.2969 31 47.2969 30.3438 47.2656 29.5312C47.2344 28.6875 47.1562 27.5938 47.0312 26.25L34.7031 27.5156C34.3906 28.0469 34.1562 28.5156 34 28.9219C33.8438 29.2969 33.7344 29.625 33.6719 29.9062C33.5781 30.25 33.5469 30.5312 33.5781 30.75C33.6406 31 33.75 31.2969 33.9062 31.6406C34.0625 31.9531 34.2812 32.3281 34.5625 32.7656C34.875 33.1719 35.3281 33.6562 35.9219 34.2188C35.1406 34.1875 34.3438 34.1719 33.5312 34.1719C32.7188 34.1719 31.9688 34.1875 31.2812 34.2188C30.4688 34.25 29.6719 34.2812 28.8906 34.3125C28.1094 34.3438 27.2188 34.3906 26.2188 34.4531C25.375 34.5156 24.3906 34.5938 23.2656 34.6875C22.1094 34.75 20.875 34.8438 19.5625 34.9688C20.375 34.5938 21.0625 34.2188 21.625 33.8438C22.1875 33.4375 22.6562 33.0625 23.0312 32.7188C23.4688 32.3438 23.8438 31.9844 24.1562 31.6406C24.375 31.3281 24.8125 30.6094 25.4688 29.4844C26.125 28.3281 26.8594 26.9688 27.6719 25.4062C28.5156 23.8438 29.3906 22.1719 30.2969 20.3906C31.2344 18.6094 32.0781 16.9375 32.8281 15.375C33.5781 13.7812 34.1875 12.4062 34.6562 11.25C35.125 10.0938 35.3594 9.34375 35.3594 9C35.2969 8.59375 35.1406 8.14062 34.8906 7.64062C34.6719 7.20312 34.3281 6.70312 33.8594 6.14062C33.4219 5.57812 32.7812 4.95312 31.9375 4.26562ZM46.4688 22.7812C46.2812 21.6875 46.1094 20.75 45.9531 19.9688C45.7969 19.1562 45.6719 18.4844 45.5781 17.9531C45.4531 17.3281 45.3594 16.7812 45.2969 16.3125C45.2031 15.875 45.0938 15.3125 44.9688 14.625C44.8438 14.0312 44.6875 13.2969 44.5 12.4219C44.3438 11.5156 44.1406 10.4375 43.8906 9.1875C42.1094 12.75 40.7188 15.5156 39.7188 17.4844C38.75 19.4219 38.0469 20.8438 37.6094 21.75C37.0781 22.8125 36.7812 23.4375 36.7188 23.625L46.4688 22.7812ZM49 2.71875C50.3438 2.84375 51.5312 2.9375 52.5625 3C53.5938 3.0625 54.4531 3.125 55.1406 3.1875C55.9531 3.25 56.6406 3.29688 57.2031 3.32812C57.7656 3.35937 58.4531 3.375 59.2656 3.375C59.9531 3.40625 60.8125 3.42188 61.8438 3.42188C62.875 3.42188 64.0938 3.42188 65.5 3.42188C64.5938 3.85938 63.8906 4.26562 63.3906 4.64062C62.9219 5.01562 62.5625 5.34375 62.3125 5.625C62 5.96875 61.8125 6.28125 61.75 6.5625C61.7188 6.8125 61.7812 7.23438 61.9375 7.82812C62.0938 8.42188 62.3125 9.09375 62.5938 9.84375C62.875 10.5625 63.2188 11.3281 63.625 12.1406C64.0312 12.9531 64.4531 13.6875 64.8906 14.3438C65.3594 14.9688 65.8281 15.4844 66.2969 15.8906C66.7656 16.2969 67.2188 16.4844 67.6562 16.4531C68.0938 16.4219 68.625 16.2188 69.25 15.8438C69.875 15.4375 70.5156 14.9375 71.1719 14.3438C71.8594 13.75 72.5312 13.1094 73.1875 12.4219C73.8438 11.7344 74.4219 11.0625 74.9219 10.4062C75.4531 9.75 75.875 9.15625 76.1875 8.625C76.5312 8.0625 76.7031 7.65625 76.7031 7.40625C76.6719 7.09375 76.5469 6.73438 76.3281 6.32812C76.1406 5.98437 75.8281 5.57812 75.3906 5.10938C74.9531 4.60938 74.3438 4.04688 73.5625 3.42188C76.125 3.51562 78 3.5625 79.1875 3.5625H80.9219H82.8906C83.6094 3.5625 84.5625 3.5625 85.75 3.5625C86.9375 3.53125 88.4219 3.48438 90.2031 3.42188C88.9844 4.23438 87.9219 4.96875 87.0156 5.625C86.1406 6.25 85.3906 6.78125 84.7656 7.21875C84.0469 7.75 83.4531 8.21875 82.9844 8.625C82.4531 9.0625 81.7188 9.75 80.7812 10.6875C79.9688 11.5 78.8906 12.5938 77.5469 13.9688C76.2031 15.3125 74.5156 17.0625 72.4844 19.2188C72.2031 21.5 72.0156 23.3438 71.9219 24.75C71.8594 26.1562 71.8281 27.2656 71.8281 28.0781C71.8281 29.0156 71.8906 29.7188 72.0156 30.1875C72.1719 30.5625 72.4375 31 72.8125 31.5C73.125 31.9375 73.5625 32.4531 74.125 33.0469C74.7188 33.6406 75.5 34.2969 76.4688 35.0156C75.4375 34.7656 74.4688 34.5781 73.5625 34.4531C72.6875 34.3281 71.9062 34.2344 71.2188 34.1719C70.4062 34.0781 69.6719 34.0312 69.0156 34.0312C68.3281 34.0312 67.5156 34.0625 66.5781 34.125C65.7656 34.1875 64.7969 34.2656 63.6719 34.3594C62.5469 34.4531 61.2344 34.5938 59.7344 34.7812C60.5156 34.25 61.1562 33.7188 61.6562 33.1875C62.1562 32.6562 62.5469 32.1719 62.8281 31.7344C63.1719 31.2344 63.4219 30.7656 63.5781 30.3281C63.7031 29.8281 63.7969 29.1094 63.8594 28.1719C63.9219 27.3594 63.9219 26.2812 63.8594 24.9375C63.8281 23.5938 63.7344 21.8906 63.5781 19.8281C61.7031 16.8281 60.1719 14.4688 58.9844 12.75C57.7969 11 56.875 9.67188 56.2188 8.76562C55.4375 7.73438 54.875 7.04688 54.5312 6.70312C54.2188 6.45312 53.7969 6.14062 53.2656 5.76562C52.8281 5.42187 52.2656 5.01562 51.5781 4.54688C50.8594 4.04688 50 3.4375 49 2.71875ZM88.9375 4.26562C90.5 4.35938 91.8125 4.4375 92.875 4.5C93.9688 4.53125 94.875 4.5625 95.5938 4.59375C96.4062 4.625 97.0938 4.625 97.6562 4.59375C98.2188 4.5625 98.9844 4.48437 99.9531 4.35938C100.766 4.26562 101.844 4.125 103.188 3.9375C104.562 3.71875 106.266 3.4375 108.297 3.09375C107.578 3.8125 107.016 4.46875 106.609 5.0625C106.234 5.625 105.938 6.10938 105.719 6.51562C105.469 7.01562 105.297 7.4375 105.203 7.78125C105.141 8.09375 105.203 8.875 105.391 10.125C105.578 11.375 105.844 12.8594 106.188 14.5781C106.531 16.2656 106.906 18.0781 107.312 20.0156C107.719 21.9219 108.125 23.7188 108.531 25.4062C108.938 27.0625 109.297 28.4844 109.609 29.6719C109.953 30.8281 110.203 31.5156 110.359 31.7344C110.828 32.3906 111.125 32.8281 111.25 33.0469C111.375 33.2344 111.594 33.4062 111.906 33.5625C112.031 33.625 112.234 33.7188 112.516 33.8438C112.766 33.9688 113.094 34.125 113.5 34.3125C113.938 34.5 114.484 34.7188 115.141 34.9688C113.922 35.0312 112.875 35.0781 112 35.1094C111.125 35.1094 110.406 35.125 109.844 35.1562C109.188 35.1875 108.625 35.2188 108.156 35.25C107.688 35.25 107.125 35.2812 106.469 35.3438C105.906 35.4062 105.172 35.4688 104.266 35.5312C103.391 35.5938 102.359 35.6562 101.172 35.7188C101.797 35.2812 102.297 34.8906 102.672 34.5469C103.078 34.1719 103.391 33.8594 103.609 33.6094C103.859 33.2969 104.031 33.0156 104.125 32.7656C104.188 32.4844 104.234 32.0625 104.266 31.5C104.297 31 104.297 30.3438 104.266 29.5312C104.234 28.6875 104.156 27.5938 104.031 26.25L91.7031 27.5156C91.3906 28.0469 91.1562 28.5156 91 28.9219C90.8438 29.2969 90.7344 29.625 90.6719 29.9062C90.5781 30.25 90.5469 30.5312 90.5781 30.75C90.6406 31 90.75 31.2969 90.9062 31.6406C91.0625 31.9531 91.2812 32.3281 91.5625 32.7656C91.875 33.1719 92.3281 33.6562 92.9219 34.2188C92.1406 34.1875 91.3438 34.1719 90.5312 34.1719C89.7188 34.1719 88.9688 34.1875 88.2812 34.2188C87.4688 34.25 86.6719 34.2812 85.8906 34.3125C85.1094 34.3438 84.2188 34.3906 83.2188 34.4531C82.375 34.5156 81.3906 34.5938 80.2656 34.6875C79.1094 34.75 77.875 34.8438 76.5625 34.9688C77.375 34.5938 78.0625 34.2188 78.625 33.8438C79.1875 33.4375 79.6562 33.0625 80.0312 32.7188C80.4688 32.3438 80.8438 31.9844 81.1562 31.6406C81.375 31.3281 81.8125 30.6094 82.4688 29.4844C83.125 28.3281 83.8594 26.9688 84.6719 25.4062C85.5156 23.8438 86.3906 22.1719 87.2969 20.3906C88.2344 18.6094 89.0781 16.9375 89.8281 15.375C90.5781 13.7812 91.1875 12.4062 91.6562 11.25C92.125 10.0938 92.3594 9.34375 92.3594 9C92.2969 8.59375 92.1406 8.14062 91.8906 7.64062C91.6719 7.20312 91.3281 6.70312 90.8594 6.14062C90.4219 5.57812 89.7812 4.95312 88.9375 4.26562ZM103.469 22.7812C103.281 21.6875 103.109 20.75 102.953 19.9688C102.797 19.1562 102.672 18.4844 102.578 17.9531C102.453 17.3281 102.359 16.7812 102.297 16.3125C102.203 15.875 102.094 15.3125 101.969 14.625C101.844 14.0312 101.688 13.2969 101.5 12.4219C101.344 11.5156 101.141 10.4375 100.891 9.1875C99.1094 12.75 97.7188 15.5156 96.7188 17.4844C95.75 19.4219 95.0469 20.8438 94.6094 21.75C94.0781 22.8125 93.7812 23.4375 93.7188 23.625L103.469 22.7812ZM111.016 1.78125C112.016 1.9375 112.922 2.07813 113.734 2.20312C114.547 2.29688 115.25 2.375 115.844 2.4375C116.531 2.53125 117.141 2.60937 117.672 2.67188C118.328 2.76562 119.312 2.65625 120.625 2.34375C121.938 2 123.375 1.6875 124.938 1.40625C126.531 1.09375 128.156 0.921875 129.812 0.890625C131.469 0.828125 132.984 1.125 134.359 1.78125C135.734 2.4375 136.859 3.09375 137.734 3.75C138.609 4.40625 139.297 5.10938 139.797 5.85938C140.328 6.57812 140.703 7.34375 140.922 8.15625C141.141 8.96875 141.266 9.85938 141.297 10.8281C141.266 12.2656 140.922 13.6562 140.266 15C139.984 15.5625 139.609 16.1562 139.141 16.7812C138.703 17.375 138.156 17.9531 137.5 18.5156C136.844 19.0781 136.062 19.6094 135.156 20.1094C134.281 20.6094 133.25 21.0469 132.062 21.4219C133.219 21.7656 134.172 22.1719 134.922 22.6406C135.703 23.1094 136.328 23.5469 136.797 23.9531C137.359 24.4531 137.781 24.9375 138.062 25.4062C138.406 26.0625 138.641 26.625 138.766 27.0938C138.891 27.5625 138.969 28.0156 139 28.4531C139.062 28.8594 139.141 29.2812 139.234 29.7188C139.328 30.1562 139.531 30.6562 139.844 31.2188C140.094 31.6562 140.391 32.1094 140.734 32.5781C141.047 32.9844 141.406 33.4219 141.812 33.8906C142.25 34.3594 142.781 34.8125 143.406 35.25C142.531 35.2812 141.719 35.2969 140.969 35.2969C140.25 35.2969 139.625 35.2969 139.094 35.2969C138.469 35.2969 137.875 35.2812 137.312 35.25C136.75 35.2188 136.047 35.2031 135.203 35.2031C134.484 35.2031 133.562 35.2031 132.438 35.2031C131.344 35.2031 130.016 35.2188 128.453 35.25C129.141 34.7188 129.703 34.1875 130.141 33.6562C130.578 33.125 130.922 32.6406 131.172 32.2031C131.453 31.7031 131.656 31.2188 131.781 30.75C131.938 29.9062 131.953 29.0312 131.828 28.125C131.734 27.3438 131.484 26.4844 131.078 25.5469C130.672 24.5781 130.016 23.6094 129.109 22.6406C128.203 22.7969 127.438 22.9219 126.812 23.0156C126.219 23.0781 125.703 23.1406 125.266 23.2031C124.766 23.2656 124.359 23.3125 124.047 23.3438C123.766 23.375 123.453 23.4062 123.109 23.4375C122.828 23.4688 122.516 23.5156 122.172 23.5781C121.859 23.6094 121.562 23.6562 121.281 23.7188C121.219 25.0625 121.219 26.2344 121.281 27.2344C121.344 28.2031 121.422 29.0156 121.516 29.6719C121.641 30.4531 121.781 31.125 121.938 31.6875C122.094 32.25 122.312 32.7969 122.594 33.3281C122.812 33.7656 123.094 34.2344 123.438 34.7344C123.781 35.2031 124.172 35.5938 124.609 35.9062C123.797 35.9062 123.016 35.9062 122.266 35.9062C121.547 35.9062 120.891 35.8906 120.297 35.8594C119.609 35.8594 118.953 35.8438 118.328 35.8125C117.703 35.7812 117 35.7656 116.219 35.7656C115.562 35.7656 114.781 35.7656 113.875 35.7656C113 35.7656 112.047 35.7812 111.016 35.8125C111.828 34.9688 112.469 34.25 112.938 33.6562C113.406 33.0625 113.766 32.5625 114.016 32.1562C114.297 31.7188 114.469 31.3438 114.531 31.0312C114.594 30.5312 114.641 29.6406 114.672 28.3594C114.734 27.0469 114.781 25.5469 114.812 23.8594C114.844 22.1719 114.859 20.4062 114.859 18.5625C114.859 16.7188 114.844 15 114.812 13.4062C114.781 11.7812 114.75 10.3906 114.719 9.23438C114.688 8.07812 114.656 7.34375 114.625 7.03125C114.531 6.46875 114.328 5.90625 114.016 5.34375C113.766 4.84375 113.406 4.28125 112.938 3.65625C112.469 3.03125 111.828 2.40625 111.016 1.78125ZM128.734 18.2812C129.047 18.0938 129.312 17.9062 129.531 17.7188C129.75 17.5312 129.938 17.2344 130.094 16.8281C130.25 16.3906 130.375 15.7812 130.469 15C130.594 14.2188 130.734 13.1562 130.891 11.8125C131.016 10.4688 130.922 9.35938 130.609 8.48438C130.328 7.60938 129.938 6.92188 129.438 6.42188C128.969 5.89062 128.438 5.53125 127.844 5.34375C127.281 5.125 126.781 5.01562 126.344 5.01562C125.469 5.01562 124.609 5.28125 123.766 5.8125C122.922 6.34375 122.281 7.0625 121.844 7.96875C121.688 8.375 121.547 9.04688 121.422 9.98438C121.328 10.7969 121.266 11.9219 121.234 13.3594C121.203 14.7969 121.25 16.6875 121.375 19.0312C122.562 19.2188 123.609 19.2969 124.516 19.2656C125.422 19.2031 126.188 19.0938 126.812 18.9375C127.562 18.7812 128.203 18.5625 128.734 18.2812ZM142.938 3.70312C144 3.82812 144.891 3.92187 145.609 3.98438C146.359 4.01562 146.969 4.0625 147.438 4.125C148 4.1875 148.438 4.21875 148.75 4.21875C149.094 4.25 149.609 4.23438 150.297 4.17188C150.891 4.10937 151.688 4.03125 152.688 3.9375C153.719 3.84375 155.031 3.70312 156.625 3.51562C155.906 4.14063 155.328 4.75 154.891 5.34375C154.484 5.90625 154.172 6.40625 153.953 6.84375C153.672 7.375 153.5 7.875 153.438 8.34375C153.312 9.09375 153.203 10.125 153.109 11.4375C153.047 12.7188 152.984 14.125 152.922 15.6562C152.859 17.1875 152.828 18.7656 152.828 20.3906C152.828 22.0156 152.844 23.5625 152.875 25.0312C152.938 26.4688 153.031 27.75 153.156 28.875C153.312 30 153.5 30.8125 153.719 31.3125C154.031 31.875 154.359 32.4375 154.703 33C155.016 33.4688 155.391 33.9531 155.828 34.4531C156.266 34.9531 156.766 35.3594 157.328 35.6719C155.484 35.5781 154.016 35.5312 152.922 35.5312H151.234C150.734 35.5312 150.094 35.5625 149.312 35.625C148.656 35.6875 147.828 35.75 146.828 35.8125C145.828 35.875 144.625 35.9688 143.219 36.0938C143.938 35.3125 144.5 34.5625 144.906 33.8438C145.312 33.125 145.641 32.5 145.891 31.9688C146.172 31.3438 146.359 30.75 146.453 30.1875C146.578 29.375 146.672 28.375 146.734 27.1875C146.828 25.9688 146.891 24.6719 146.922 23.2969C146.953 21.8906 146.953 20.4688 146.922 19.0312C146.922 17.5625 146.891 16.1562 146.828 14.8125C146.766 13.4688 146.672 12.25 146.547 11.1562C146.453 10.0625 146.328 9.1875 146.172 8.53125C146.078 8.125 145.891 7.67188 145.609 7.17188C145.359 6.73438 145.016 6.23438 144.578 5.67188C144.172 5.07813 143.625 4.42188 142.938 3.70312Z" fill="#29C0E2"/>
<path d="M264.812 1.6875C264.375 2.6875 263.984 3.5625 263.641 4.3125C263.297 5.0625 263 5.70312 262.75 6.23438C262.469 6.82812 262.234 7.35938 262.047 7.82812C261.891 8.17188 261.688 8.64062 261.438 9.23438C261.188 9.76562 260.875 10.4688 260.5 11.3438C260.156 12.1875 259.703 13.2812 259.141 14.625C258.859 13.4688 258.516 12.4531 258.109 11.5781C257.703 10.7031 257.266 9.9375 256.797 9.28125C256.328 8.625 255.828 8.09375 255.297 7.6875C254.797 7.25 254.297 6.89062 253.797 6.60938C252.641 5.98437 251.422 5.64063 250.141 5.57812C248.453 5.67188 247.125 5.95312 246.156 6.42188C245.219 6.85938 244.531 7.375 244.094 7.96875C243.656 8.53125 243.422 9.125 243.391 9.75C243.359 10.3438 243.438 10.8438 243.625 11.25C243.781 11.625 244.328 12.0625 245.266 12.5625C246.234 13.0625 247.391 13.6406 248.734 14.2969C250.109 14.9219 251.578 15.6406 253.141 16.4531C254.703 17.2344 256.141 18.1094 257.453 19.0781C258.797 20.0156 259.922 21.0469 260.828 22.1719C261.766 23.2656 262.281 24.4375 262.375 25.6875C262.469 27.2812 262.453 28.7188 262.328 30C262.203 31.2812 261.766 32.375 261.016 33.2812C260.266 34.1875 259.094 34.9062 257.5 35.4375C255.938 35.9688 253.766 36.2969 250.984 36.4219C248.109 36.5469 245.75 36.3906 243.906 35.9531C242.062 35.5156 240.562 34.9219 239.406 34.1719C238.281 33.4219 237.438 32.5938 236.875 31.6875C236.344 30.7812 235.953 29.9219 235.703 29.1094C235.453 28.2656 235.281 27.5469 235.188 26.9531C235.094 26.3281 234.938 25.9531 234.719 25.8281C234.469 25.6719 234.219 25.5312 233.969 25.4062C233.75 25.2812 233.516 25.1719 233.266 25.0781C233.016 24.9531 232.766 24.8438 232.516 24.75L246.156 22.5469C245.375 23.1719 244.766 23.75 244.328 24.2812C243.922 24.8125 243.609 25.2812 243.391 25.6875C243.141 26.1562 242.969 26.5938 242.875 27C242.812 27.4375 242.953 27.9844 243.297 28.6406C243.641 29.2969 244.109 29.9375 244.703 30.5625C245.328 31.1562 246.047 31.6562 246.859 32.0625C247.672 32.4688 248.516 32.6406 249.391 32.5781C250.484 32.4844 251.375 32.2188 252.062 31.7812C252.75 31.3125 253.266 30.7344 253.609 30.0469C253.984 29.3594 254.203 28.6094 254.266 27.7969C254.328 26.9844 254.25 26.1875 254.031 25.4062C253.844 24.5938 253.531 23.8438 253.094 23.1562C252.656 22.4375 252.141 21.8438 251.547 21.375C251.016 21 250.188 20.6406 249.062 20.2969C247.969 19.9531 246.734 19.5781 245.359 19.1719C244.016 18.7656 242.625 18.2969 241.188 17.7656C239.781 17.2344 238.5 16.5781 237.344 15.7969C236.219 15.0156 235.312 14.0938 234.625 13.0312C233.969 11.9688 233.719 10.6875 233.875 9.1875C234 7.90625 234.406 6.84375 235.094 6C235.812 5.125 236.703 4.4375 237.766 3.9375C238.859 3.40625 240.062 3.01563 241.375 2.76562C242.719 2.51562 244.078 2.375 245.453 2.34375C246.859 2.28125 248.234 2.29688 249.578 2.39062C250.953 2.48438 252.188 2.59375 253.281 2.71875C254.375 2.84375 255.297 2.96875 256.047 3.09375C256.828 3.1875 257.312 3.25 257.5 3.28125C258.312 3.34375 259.125 3.32812 259.938 3.23438C260.656 3.17187 261.438 3.03125 262.281 2.8125C263.156 2.5625 264 2.1875 264.812 1.6875ZM279.766 0.65625C281.453 0.71875 283.156 1.03125 284.875 1.59375C286.625 2.125 288.234 3 289.703 4.21875C291.172 5.40625 292.422 6.95312 293.453 8.85938C294.484 10.7344 295.125 13.0312 295.375 15.75C295.594 17.9688 295.312 20.1719 294.531 22.3594C293.781 24.5156 292.734 26.5 291.391 28.3125C290.047 30.125 288.5 31.6719 286.75 32.9531C285 34.2031 283.25 35.0312 281.5 35.4375C280.438 35.6875 279.266 35.7188 277.984 35.5312C276.734 35.3125 275.453 34.9219 274.141 34.3594C272.859 33.7656 271.594 33.0156 270.344 32.1094C269.125 31.2031 268.016 30.1719 267.016 29.0156C266.016 27.8281 265.172 26.5469 264.484 25.1719C263.828 23.7969 263.422 22.3594 263.266 20.8594C263.109 19.6094 263.094 18.2344 263.219 16.7344C263.375 15.2031 263.672 13.6875 264.109 12.1875C264.578 10.6562 265.219 9.1875 266.031 7.78125C266.875 6.34375 267.938 5.09375 269.219 4.03125C270.5 2.9375 272 2.09375 273.719 1.5C275.469 0.875 277.484 0.59375 279.766 0.65625ZM271.375 19.6406C270.938 22.9844 271.25 25.6719 272.312 27.7031C273.406 29.7344 275.047 30.9688 277.234 31.4062C278.297 31.625 279.312 31.4062 280.281 30.75C281.281 30.0625 282.188 29.0781 283 27.7969C283.812 26.5156 284.516 25.0156 285.109 23.2969C285.703 21.5781 286.141 19.7812 286.422 17.9062C286.703 16.0312 286.719 14.3438 286.469 12.8438C286.25 11.3125 285.859 10.0156 285.297 8.95312C284.734 7.85938 284.047 7.01562 283.234 6.42188C282.453 5.82813 281.641 5.5 280.797 5.4375C279.328 5.34375 278.047 5.73438 276.953 6.60938C275.859 7.45312 274.938 8.5625 274.188 9.9375C273.438 11.3125 272.828 12.8594 272.359 14.5781C271.922 16.2969 271.594 17.9844 271.375 19.6406ZM295.891 3.65625C297.766 3.8125 299.406 3.90625 300.812 3.9375C302.25 3.96875 303.469 3.98438 304.469 3.98438C305.625 3.98438 306.625 3.95313 307.469 3.89062C308.344 3.79688 309.484 3.67188 310.891 3.51562C312.078 3.35937 313.609 3.15625 315.484 2.90625C317.359 2.625 319.641 2.26563 322.328 1.82812C321.984 2.35938 321.688 2.92188 321.438 3.51562C321.219 4.07812 321.031 4.59375 320.875 5.0625C320.719 5.625 320.578 6.17188 320.453 6.70312C320.359 7.29688 320.25 8.03125 320.125 8.90625C320 9.65625 319.844 10.6094 319.656 11.7656C319.5 12.8906 319.297 14.2344 319.047 15.7969C318.109 13.3594 317.156 11.4844 316.188 10.1719C315.25 8.85938 314.375 7.89062 313.562 7.26562C312.625 6.54688 311.734 6.14062 310.891 6.04688C309.672 6.04688 308.672 6.28125 307.891 6.75C307.109 7.21875 306.469 7.82812 305.969 8.57812C305.5 9.29688 305.141 10.0938 304.891 10.9688C304.641 11.8125 304.469 12.6406 304.375 13.4531C304.281 14.2344 304.219 14.9375 304.188 15.5625C304.156 16.1562 304.125 16.5625 304.094 16.7812C305.188 16.7188 306.109 16.6406 306.859 16.5469C307.609 16.4531 308.203 16.3594 308.641 16.2656C309.172 16.1406 309.594 16.0156 309.906 15.8906C310.375 15.6406 310.844 15.3438 311.312 15C311.719 14.6875 312.141 14.3125 312.578 13.875C313.047 13.4375 313.453 12.9062 313.797 12.2812C313.609 13.4062 313.438 14.3438 313.281 15.0938C313.156 15.8438 313.047 16.4375 312.953 16.875C312.828 17.4062 312.75 17.8125 312.719 18.0938C312.656 18.375 312.578 18.7656 312.484 19.2656C312.391 19.7031 312.281 20.2656 312.156 20.9531C312.031 21.6406 311.891 22.5 311.734 23.5312C311.359 22.875 310.969 22.3438 310.562 21.9375C310.156 21.5 309.781 21.1562 309.438 20.9062C309.031 20.625 308.641 20.4062 308.266 20.25C307.859 20.125 307.422 20 306.953 19.875C306.547 19.7812 306.062 19.6875 305.5 19.5938C304.969 19.4688 304.391 19.3594 303.766 19.2656C303.828 20.9531 303.922 22.4062 304.047 23.625C304.172 24.8125 304.281 25.8125 304.375 26.625C304.5 27.5625 304.625 28.3438 304.75 28.9688C304.906 29.5938 305.156 30.2656 305.5 30.9844C305.781 31.6094 306.172 32.3281 306.672 33.1406C307.203 33.9219 307.875 34.7656 308.688 35.6719C308.062 35.5156 307.406 35.4062 306.719 35.3438C306.031 35.2812 305.422 35.2344 304.891 35.2031C304.234 35.1719 303.609 35.1719 303.016 35.2031C302.391 35.2344 301.703 35.2969 300.953 35.3906C300.328 35.4531 299.609 35.5469 298.797 35.6719C297.984 35.7969 297.125 35.9375 296.219 36.0938C296.75 35.5625 297.188 35.0312 297.531 34.5C297.875 33.9688 298.125 33.5 298.281 33.0938C298.469 32.625 298.594 32.1719 298.656 31.7344C298.688 31.3594 298.703 30.5469 298.703 29.2969C298.703 28.0156 298.688 26.5312 298.656 24.8438C298.625 23.125 298.578 21.3125 298.516 19.4062C298.453 17.5 298.391 15.7188 298.328 14.0625C298.266 12.375 298.188 10.9375 298.094 9.75C298.031 8.5625 297.953 7.84375 297.859 7.59375C297.734 7.28125 297.594 6.92188 297.438 6.51562C297.188 5.85938 296.672 4.90625 295.891 3.65625ZM318.766 1.78125C320.859 2.03125 322.672 2.21875 324.203 2.34375C325.734 2.4375 327 2.51562 328 2.57812C329.156 2.64063 330.125 2.65625 330.906 2.625C331.719 2.59375 332.828 2.51562 334.234 2.39062C335.422 2.29688 336.984 2.17188 338.922 2.01562C340.859 1.82812 343.281 1.57812 346.188 1.26562C346.219 1.98438 346.234 2.6875 346.234 3.375C346.266 4.03125 346.297 4.60938 346.328 5.10938C346.359 5.70312 346.375 6.25 346.375 6.75C346.375 7.28125 346.344 7.95312 346.281 8.76562C346.219 9.45312 346.109 10.3281 345.953 11.3906C345.828 12.4219 345.625 13.6562 345.344 15.0938C344.906 13.4062 344.484 12.0469 344.078 11.0156C343.672 9.95312 343.297 9.10938 342.953 8.48438C342.578 7.76562 342.203 7.21875 341.828 6.84375C341.422 6.5625 340.938 6.32812 340.375 6.14062C339.875 5.98437 339.234 5.85938 338.453 5.76562C337.703 5.67188 336.812 5.6875 335.781 5.8125C335.625 9.9375 335.516 13.2812 335.453 15.8438C335.391 18.4062 335.344 20.4062 335.312 21.8438C335.281 23.5625 335.266 24.7969 335.266 25.5469C335.297 26.6094 335.469 27.6562 335.781 28.6875C336.031 29.5625 336.438 30.4688 337 31.4062C337.562 32.3438 338.375 33.1719 339.438 33.8906H333.719C333.188 33.8906 332.531 33.9219 331.75 33.9844C331.094 34.0469 330.25 34.1094 329.219 34.1719C328.219 34.2344 327.047 34.3438 325.703 34.5C326.172 33.6875 326.547 32.9531 326.828 32.2969C327.109 31.6406 327.328 31.0781 327.484 30.6094C327.672 30.0469 327.812 29.5469 327.906 29.1094C327.938 28.4844 328.016 27.2188 328.141 25.3125C328.172 24.5312 328.203 23.5625 328.234 22.4062C328.297 21.25 328.359 19.875 328.422 18.2812C328.516 16.6875 328.594 14.8594 328.656 12.7969C328.75 10.7031 328.844 8.34375 328.938 5.71875C328.375 5.5625 327.844 5.57812 327.344 5.76562C326.844 5.92188 326.406 6.125 326.031 6.375C325.594 6.6875 325.172 7.0625 324.766 7.5C324.359 8.03125 323.906 8.71875 323.406 9.5625C322.969 10.2812 322.469 11.2344 321.906 12.4219C321.344 13.5781 320.703 15.0156 319.984 16.7344C319.828 14.9219 319.719 13.4375 319.656 12.2812C319.594 11.0938 319.547 10.1719 319.516 9.51562C319.484 8.73438 319.469 8.15625 319.469 7.78125C319.469 7.4375 319.438 6.98438 319.375 6.42188C319.312 5.95312 319.234 5.34375 319.141 4.59375C319.047 3.8125 318.922 2.875 318.766 1.78125ZM341.594 3.04688C342.625 3.17187 343.562 3.26562 344.406 3.32812C345.219 3.39063 345.922 3.45312 346.516 3.51562C347.203 3.57813 347.812 3.625 348.344 3.65625C348.906 3.65625 349.625 3.64062 350.5 3.60938C351.25 3.57813 352.203 3.53125 353.359 3.46875C354.516 3.40625 355.938 3.29688 357.625 3.14062C356.812 3.60938 356.141 4.07812 355.609 4.54688C355.109 5.01562 354.719 5.4375 354.438 5.8125C354.094 6.25 353.844 6.6875 353.688 7.125C353.594 7.71875 353.625 8.875 353.781 10.5938C353.844 11.3125 353.938 12.2031 354.062 13.2656C354.219 14.2969 354.406 15.5312 354.625 16.9688C354.875 18.375 355.172 20 355.516 21.8438C355.891 23.6875 356.312 25.7812 356.781 28.125C357.406 26.3438 357.922 24.7656 358.328 23.3906C358.734 21.9844 359.078 20.7812 359.359 19.7812C359.672 18.6562 359.938 17.6562 360.156 16.7812C360.375 15.875 360.641 14.7031 360.953 13.2656C361.203 12.0469 361.531 10.4688 361.938 8.53125C362.344 6.59375 362.844 4.20312 363.438 1.35938L365.125 1.59375C365.281 3.8125 365.438 5.76562 365.594 7.45312C365.781 9.14062 365.938 10.5781 366.062 11.7656C366.188 13.1406 366.312 14.3281 366.438 15.3281C366.562 16.2344 366.75 17.2812 367 18.4688C367.219 19.4688 367.5 20.7031 367.844 22.1719C368.188 23.6094 368.641 25.2344 369.203 27.0469C369.766 24.8281 370.266 22.8438 370.703 21.0938C371.172 19.3438 371.562 17.7969 371.875 16.4531C372.219 15.1094 372.5 13.9531 372.719 12.9844C372.969 12.0156 373.172 11.2031 373.328 10.5469C373.672 8.98438 373.875 7.9375 373.938 7.40625C373.906 6.8125 373.766 6.23438 373.516 5.67188C373.297 5.17188 372.953 4.625 372.484 4.03125C372.016 3.4375 371.328 2.85938 370.422 2.29688C372.328 2.35938 373.875 2.40625 375.062 2.4375C376.281 2.4375 377.25 2.4375 377.969 2.4375H379.844H381.531C382.156 2.4375 382.969 2.4375 383.969 2.4375C385 2.40625 386.312 2.35938 387.906 2.29688C386.531 3.01563 385.422 3.67188 384.578 4.26562C383.734 4.85937 383.078 5.35938 382.609 5.76562C382.047 6.26562 381.641 6.6875 381.391 7.03125C381.141 7.65625 380.734 9.0625 380.172 11.25C379.922 12.1875 379.641 13.3594 379.328 14.7656C379.016 16.1406 378.641 17.7969 378.203 19.7344C377.797 21.6719 377.328 23.9375 376.797 26.5312C376.266 29.0938 375.672 32.0312 375.016 35.3438L366.906 34.5L363.438 19.9219C362.906 22.5781 362.484 24.7344 362.172 26.3906C361.859 28.0156 361.625 29.2812 361.469 30.1875C361.281 31.2812 361.172 32.0781 361.141 32.5781C361.109 33.0156 361.078 33.4375 361.047 33.8438C361.016 34.1875 360.969 34.5625 360.906 34.9688C360.875 35.375 360.828 35.75 360.766 36.0938H352.469C351.656 32.5312 350.922 29.3906 350.266 26.6719C349.641 23.9219 349.078 21.5156 348.578 19.4531C348.078 17.3906 347.641 15.6406 347.266 14.2031C346.922 12.7656 346.609 11.5625 346.328 10.5938C345.703 8.34375 345.25 6.95312 344.969 6.42188C344.75 6.17188 344.469 5.875 344.125 5.53125C343.844 5.25 343.5 4.90625 343.094 4.5C342.656 4.0625 342.156 3.57813 341.594 3.04688ZM389.734 4.26562C391.297 4.35938 392.609 4.4375 393.672 4.5C394.766 4.53125 395.672 4.5625 396.391 4.59375C397.203 4.625 397.891 4.625 398.453 4.59375C399.016 4.5625 399.781 4.48437 400.75 4.35938C401.562 4.26562 402.641 4.125 403.984 3.9375C405.359 3.71875 407.062 3.4375 409.094 3.09375C408.375 3.8125 407.812 4.46875 407.406 5.0625C407.031 5.625 406.734 6.10938 406.516 6.51562C406.266 7.01562 406.094 7.4375 406 7.78125C405.938 8.09375 406 8.875 406.188 10.125C406.375 11.375 406.641 12.8594 406.984 14.5781C407.328 16.2656 407.703 18.0781 408.109 20.0156C408.516 21.9219 408.922 23.7188 409.328 25.4062C409.734 27.0625 410.094 28.4844 410.406 29.6719C410.75 30.8281 411 31.5156 411.156 31.7344C411.625 32.3906 411.922 32.8281 412.047 33.0469C412.172 33.2344 412.391 33.4062 412.703 33.5625C412.828 33.625 413.031 33.7188 413.312 33.8438C413.562 33.9688 413.891 34.125 414.297 34.3125C414.734 34.5 415.281 34.7188 415.938 34.9688C414.719 35.0312 413.672 35.0781 412.797 35.1094C411.922 35.1094 411.203 35.125 410.641 35.1562C409.984 35.1875 409.422 35.2188 408.953 35.25C408.484 35.25 407.922 35.2812 407.266 35.3438C406.703 35.4062 405.969 35.4688 405.062 35.5312C404.188 35.5938 403.156 35.6562 401.969 35.7188C402.594 35.2812 403.094 34.8906 403.469 34.5469C403.875 34.1719 404.188 33.8594 404.406 33.6094C404.656 33.2969 404.828 33.0156 404.922 32.7656C404.984 32.4844 405.031 32.0625 405.062 31.5C405.094 31 405.094 30.3438 405.062 29.5312C405.031 28.6875 404.953 27.5938 404.828 26.25L392.5 27.5156C392.188 28.0469 391.953 28.5156 391.797 28.9219C391.641 29.2969 391.531 29.625 391.469 29.9062C391.375 30.25 391.344 30.5312 391.375 30.75C391.438 31 391.547 31.2969 391.703 31.6406C391.859 31.9531 392.078 32.3281 392.359 32.7656C392.672 33.1719 393.125 33.6562 393.719 34.2188C392.938 34.1875 392.141 34.1719 391.328 34.1719C390.516 34.1719 389.766 34.1875 389.078 34.2188C388.266 34.25 387.469 34.2812 386.688 34.3125C385.906 34.3438 385.016 34.3906 384.016 34.4531C383.172 34.5156 382.188 34.5938 381.062 34.6875C379.906 34.75 378.672 34.8438 377.359 34.9688C378.172 34.5938 378.859 34.2188 379.422 33.8438C379.984 33.4375 380.453 33.0625 380.828 32.7188C381.266 32.3438 381.641 31.9844 381.953 31.6406C382.172 31.3281 382.609 30.6094 383.266 29.4844C383.922 28.3281 384.656 26.9688 385.469 25.4062C386.312 23.8438 387.188 22.1719 388.094 20.3906C389.031 18.6094 389.875 16.9375 390.625 15.375C391.375 13.7812 391.984 12.4062 392.453 11.25C392.922 10.0938 393.156 9.34375 393.156 9C393.094 8.59375 392.938 8.14062 392.688 7.64062C392.469 7.20312 392.125 6.70312 391.656 6.14062C391.219 5.57812 390.578 4.95312 389.734 4.26562ZM404.266 22.7812C404.078 21.6875 403.906 20.75 403.75 19.9688C403.594 19.1562 403.469 18.4844 403.375 17.9531C403.25 17.3281 403.156 16.7812 403.094 16.3125C403 15.875 402.891 15.3125 402.766 14.625C402.641 14.0312 402.484 13.2969 402.297 12.4219C402.141 11.5156 401.938 10.4375 401.688 9.1875C399.906 12.75 398.516 15.5156 397.516 17.4844C396.547 19.4219 395.844 20.8438 395.406 21.75C394.875 22.8125 394.578 23.4375 394.516 23.625L404.266 22.7812ZM411.812 1.78125C412.812 1.9375 413.719 2.07813 414.531 2.20312C415.344 2.29688 416.047 2.375 416.641 2.4375C417.328 2.53125 417.938 2.60937 418.469 2.67188C419.125 2.76562 420.109 2.65625 421.422 2.34375C422.734 2 424.172 1.6875 425.734 1.40625C427.328 1.09375 428.953 0.921875 430.609 0.890625C432.266 0.828125 433.781 1.125 435.156 1.78125C436.531 2.4375 437.656 3.09375 438.531 3.75C439.406 4.40625 440.094 5.10938 440.594 5.85938C441.125 6.57812 441.5 7.34375 441.719 8.15625C441.938 8.96875 442.062 9.85938 442.094 10.8281C442.062 12.2656 441.719 13.6562 441.062 15C440.781 15.5625 440.406 16.1562 439.938 16.7812C439.5 17.375 438.953 17.9531 438.297 18.5156C437.641 19.0781 436.859 19.6094 435.953 20.1094C435.078 20.6094 434.047 21.0469 432.859 21.4219C434.016 21.7656 434.969 22.1719 435.719 22.6406C436.5 23.1094 437.125 23.5469 437.594 23.9531C438.156 24.4531 438.578 24.9375 438.859 25.4062C439.203 26.0625 439.438 26.625 439.562 27.0938C439.688 27.5625 439.766 28.0156 439.797 28.4531C439.859 28.8594 439.938 29.2812 440.031 29.7188C440.125 30.1562 440.328 30.6562 440.641 31.2188C440.891 31.6562 441.188 32.1094 441.531 32.5781C441.844 32.9844 442.203 33.4219 442.609 33.8906C443.047 34.3594 443.578 34.8125 444.203 35.25C443.328 35.2812 442.516 35.2969 441.766 35.2969C441.047 35.2969 440.422 35.2969 439.891 35.2969C439.266 35.2969 438.672 35.2812 438.109 35.25C437.547 35.2188 436.844 35.2031 436 35.2031C435.281 35.2031 434.359 35.2031 433.234 35.2031C432.141 35.2031 430.812 35.2188 429.25 35.25C429.938 34.7188 430.5 34.1875 430.938 33.6562C431.375 33.125 431.719 32.6406 431.969 32.2031C432.25 31.7031 432.453 31.2188 432.578 30.75C432.734 29.9062 432.75 29.0312 432.625 28.125C432.531 27.3438 432.281 26.4844 431.875 25.5469C431.469 24.5781 430.812 23.6094 429.906 22.6406C429 22.7969 428.234 22.9219 427.609 23.0156C427.016 23.0781 426.5 23.1406 426.062 23.2031C425.562 23.2656 425.156 23.3125 424.844 23.3438C424.562 23.375 424.25 23.4062 423.906 23.4375C423.625 23.4688 423.312 23.5156 422.969 23.5781C422.656 23.6094 422.359 23.6562 422.078 23.7188C422.016 25.0625 422.016 26.2344 422.078 27.2344C422.141 28.2031 422.219 29.0156 422.312 29.6719C422.438 30.4531 422.578 31.125 422.734 31.6875C422.891 32.25 423.109 32.7969 423.391 33.3281C423.609 33.7656 423.891 34.2344 424.234 34.7344C424.578 35.2031 424.969 35.5938 425.406 35.9062C424.594 35.9062 423.812 35.9062 423.062 35.9062C422.344 35.9062 421.688 35.8906 421.094 35.8594C420.406 35.8594 419.75 35.8438 419.125 35.8125C418.5 35.7812 417.797 35.7656 417.016 35.7656C416.359 35.7656 415.578 35.7656 414.672 35.7656C413.797 35.7656 412.844 35.7812 411.812 35.8125C412.625 34.9688 413.266 34.25 413.734 33.6562C414.203 33.0625 414.562 32.5625 414.812 32.1562C415.094 31.7188 415.266 31.3438 415.328 31.0312C415.391 30.5312 415.438 29.6406 415.469 28.3594C415.531 27.0469 415.578 25.5469 415.609 23.8594C415.641 22.1719 415.656 20.4062 415.656 18.5625C415.656 16.7188 415.641 15 415.609 13.4062C415.578 11.7812 415.547 10.3906 415.516 9.23438C415.484 8.07812 415.453 7.34375 415.422 7.03125C415.328 6.46875 415.125 5.90625 414.812 5.34375C414.562 4.84375 414.203 4.28125 413.734 3.65625C413.266 3.03125 412.625 2.40625 411.812 1.78125ZM429.531 18.2812C429.844 18.0938 430.109 17.9062 430.328 17.7188C430.547 17.5312 430.734 17.2344 430.891 16.8281C431.047 16.3906 431.172 15.7812 431.266 15C431.391 14.2188 431.531 13.1562 431.688 11.8125C431.812 10.4688 431.719 9.35938 431.406 8.48438C431.125 7.60938 430.734 6.92188 430.234 6.42188C429.766 5.89062 429.234 5.53125 428.641 5.34375C428.078 5.125 427.578 5.01562 427.141 5.01562C426.266 5.01562 425.406 5.28125 424.562 5.8125C423.719 6.34375 423.078 7.0625 422.641 7.96875C422.484 8.375 422.344 9.04688 422.219 9.98438C422.125 10.7969 422.062 11.9219 422.031 13.3594C422 14.7969 422.047 16.6875 422.172 19.0312C423.359 19.2188 424.406 19.2969 425.312 19.2656C426.219 19.2031 426.984 19.0938 427.609 18.9375C428.359 18.7812 429 18.5625 429.531 18.2812ZM441.344 3.98438C443.531 4.04688 445.344 4.09375 446.781 4.125C448.25 4.125 449.438 4.125 450.344 4.125H452.828H466.797C466.859 4.75 466.906 5.35938 466.938 5.95312C467 6.51562 467.031 7.01562 467.031 7.45312C467.031 7.98438 467.016 8.46875 466.984 8.90625C466.953 9.34375 466.906 9.8125 466.844 10.3125C466.781 10.75 466.719 11.2188 466.656 11.7188C466.594 12.2188 466.484 12.7344 466.328 13.2656C465.891 11.5781 465.297 10.2969 464.547 9.42188C463.828 8.54688 463.094 7.90625 462.344 7.5C461.469 7.03125 460.547 6.78125 459.578 6.75C458.297 6.8125 457.297 6.92188 456.578 7.07812C455.859 7.23438 455.297 7.45312 454.891 7.73438C454.484 8.01562 454.172 8.34375 453.953 8.71875C453.766 9.0625 453.562 9.45312 453.344 9.89062C453.156 10.2656 452.984 10.8438 452.828 11.625C452.672 12.2812 452.516 13.1719 452.359 14.2969C452.234 15.4219 452.094 16.875 451.938 18.6562C452.781 18.4062 453.453 18.1719 453.953 17.9531C454.484 17.7344 454.906 17.5469 455.219 17.3906C455.562 17.2031 455.812 17.0312 455.969 16.875C456.094 16.6875 456.281 16.3438 456.531 15.8438C456.719 15.4062 456.969 14.8125 457.281 14.0625C457.625 13.3125 458.031 12.2812 458.5 10.9688C458.562 12.4062 458.594 13.6094 458.594 14.5781C458.594 15.5156 458.609 16.2812 458.641 16.875C458.641 17.5625 458.656 18.1094 458.688 18.5156V20.2969C458.688 20.9531 458.688 21.8438 458.688 22.9688C458.719 24.0625 458.766 25.4531 458.828 27.1406C458.453 25.9844 458.109 25.0781 457.797 24.4219C457.516 23.7344 457.266 23.2188 457.047 22.875C456.797 22.4688 456.578 22.1875 456.391 22.0312C456.172 21.9688 455.875 21.9062 455.5 21.8438C455.156 21.8125 454.719 21.7969 454.188 21.7969C453.688 21.7969 453.047 21.875 452.266 22.0312C452.172 23.75 452.156 25.1406 452.219 26.2031C452.312 27.2344 452.438 28.0312 452.594 28.5938C452.75 29.25 452.938 29.7188 453.156 30C453.438 30.2812 454 30.5156 454.844 30.7031C455.688 30.8594 456.641 30.9219 457.703 30.8906C458.797 30.8281 459.906 30.6406 461.031 30.3281C462.156 30.0156 463.156 29.5 464.031 28.7812C464.688 28.1875 465.391 27.4375 466.141 26.5312C466.766 25.75 467.453 24.7656 468.203 23.5781C468.984 22.3906 469.75 20.9531 470.5 19.2656C470.375 20.6719 470.281 21.8438 470.219 22.7812C470.188 23.6875 470.141 24.4219 470.078 24.9844C470.016 25.6406 469.969 26.1406 469.938 26.4844C469.938 26.8594 469.891 27.3906 469.797 28.0781C469.734 28.6719 469.625 29.4844 469.469 30.5156C469.344 31.5156 469.172 32.7969 468.953 34.3594C467.484 34.3906 466.094 34.4219 464.781 34.4531C463.469 34.4531 462.312 34.4688 461.312 34.5C460.125 34.5312 459.031 34.5625 458.031 34.5938C457 34.5938 455.859 34.6406 454.609 34.7344C453.516 34.7969 452.219 34.8906 450.719 35.0156C449.25 35.1406 447.625 35.3125 445.844 35.5312C446 33.4062 446.109 31.4062 446.172 29.5312C446.266 27.625 446.328 25.9531 446.359 24.5156C446.391 22.8281 446.391 21.2656 446.359 19.8281C446.516 16.2344 446.453 13.3281 446.172 11.1094C445.891 8.89062 445.562 7.46875 445.188 6.84375C445 6.625 444.734 6.35938 444.391 6.04688C444.109 5.79687 443.719 5.5 443.219 5.15625C442.719 4.8125 442.094 4.42188 441.344 3.98438Z" fill="#484E58"/>
</svg>
